<svg width="24" height="24" viewBox="0 0 24 24" fill="none" xmlns="http://www.w3.org/2000/svg">
<path d="M12.9 11.1H19.155C18.93 9.45 18.2439 8.0511 17.0967 6.9033C15.9489 5.7561 14.55 5.07 12.9 4.845V11.1ZM11.1 19.155V4.845C9.285 5.07 7.7814 5.8611 6.5892 7.2183C5.3964 8.5761 4.8 10.17 4.8 12C4.8 13.83 5.3964 15.4236 6.5892 16.7808C7.7814 18.1386 9.285 18.93 11.1 19.155ZM12.9 19.155C14.55 18.945 15.9525 18.2625 17.1075 17.1075C18.2625 15.9525 18.945 14.55 19.155 12.9H12.9V19.155ZM12 21C10.755 21 9.585 20.7636 8.49 20.2908C7.395 19.8186 6.4425 19.1775 5.6325 18.3675C4.8225 17.5575 4.1814 16.605 3.7092 15.51C3.2364 14.415 3 13.245 3 12C3 10.755 3.2364 9.585 3.7092 8.49C4.1814 7.395 4.8225 6.4425 5.6325 5.6325C6.4425 4.8225 7.395 4.1811 8.49 3.7083C9.585 3.2361 10.755 3 12 3C13.245 3 14.4111 3.2361 15.4983 3.7083C16.5861 4.1811 17.5386 4.8264 18.3558 5.6442C19.1736 6.4614 19.8186 7.4139 20.2908 8.5017C20.7636 9.5889 21 10.755 21 12C21 13.23 20.7636 14.3925 20.2908 15.4875C19.8186 16.5825 19.1775 17.5386 18.3675 18.3558C17.5575 19.1736 16.605 19.8186 15.51 20.2908C14.415 20.7636 13.245 21 12 21Z" fill="#121212"/>
</svg>
