<svg width="24" height="24" viewBox="0 0 24 24" fill="none" xmlns="http://www.w3.org/2000/svg">
<path d="M14.5 21.25C14.9142 21.25 15.25 21.5858 15.25 22C15.25 22.4142 14.9142 22.75 14.5 22.75H9.5C9.08579 22.75 8.75 22.4142 8.75 22C8.75 21.5858 9.08579 21.25 9.5 21.25H14.5ZM18.25 9C18.25 5.54822 15.4518 2.75 12 2.75C8.54822 2.75 5.75 5.54822 5.75 9C5.75 11.4921 7.20896 13.6445 9.32227 14.6484C9.58363 14.7727 9.74992 15.0368 9.75 15.3262V16C9.75 16.476 9.75071 16.7955 9.76758 17.043C9.784 17.2837 9.81277 17.4014 9.84473 17.4785C9.97159 17.7848 10.2152 18.0284 10.5215 18.1553C10.5986 18.1872 10.7163 18.216 10.957 18.2324C11.2045 18.2493 11.524 18.25 12 18.25C12.476 18.25 12.7955 18.2493 13.043 18.2324C13.2837 18.216 13.4014 18.1872 13.4785 18.1553C13.7848 18.0284 14.0284 17.7848 14.1553 17.4785C14.1872 17.4014 14.216 17.2837 14.2324 17.043C14.2493 16.7955 14.25 16.476 14.25 16V15.3262C14.2501 15.0368 14.4164 14.7727 14.6777 14.6484C16.791 13.6445 18.25 11.4921 18.25 9ZM19.75 9C19.75 11.9207 18.1336 14.4616 15.75 15.7822V16C15.75 16.4557 15.7507 16.8351 15.7295 17.1455C15.7079 17.4626 15.6613 17.7624 15.541 18.0527C15.2619 18.7264 14.7264 19.2619 14.0527 19.541C13.7624 19.6613 13.4626 19.7079 13.1455 19.7295C12.8351 19.7507 12.4557 19.75 12 19.75C11.5443 19.75 11.1649 19.7507 10.8545 19.7295C10.5374 19.7079 10.2376 19.6613 9.94727 19.541C9.27358 19.2619 8.73809 18.7264 8.45898 18.0527C8.33872 17.7624 8.29215 17.4626 8.27051 17.1455C8.24933 16.8351 8.25 16.4557 8.25 16V15.7822C5.86639 14.4616 4.25 11.9207 4.25 9C4.25 4.71979 7.71979 1.25 12 1.25C16.2802 1.25 19.75 4.71979 19.75 9Z" fill="#121212"/>
</svg>
