<svg preserveAspectRatio="none" width="100%" height="100%" overflow="visible" style="display: block;" viewBox="0 0 16.3333 13" fill="none" xmlns="http://www.w3.org/2000/svg">
<path id="Vector" fill-rule="evenodd" clip-rule="evenodd" d="M1.5 0C0.671573 0 0 0.671574 0 1.5V11.5C0 12.3284 0.671574 13 1.5 13H14.8333C15.6618 13 16.3333 12.3284 16.3333 11.5V1.5C16.3333 0.671572 15.6618 0 14.8333 0H1.5ZM1.33333 1.5C1.33333 1.40795 1.40795 1.33333 1.5 1.33333H5.66669L5.66669 11.6667H1.5C1.40795 11.6667 1.33333 11.592 1.33333 11.5V1.5ZM7.00002 11.6667H14.8333C14.9254 11.6667 15 11.592 15 11.5V1.5C15 1.40795 14.9254 1.33333 14.8333 1.33333H7.00002L7.00002 11.6667Z" fill="var(--fill-0, #464C53)"/>
</svg>
