<svg preserveAspectRatio="none" width="100%" height="100%" overflow="visible" style="display: block;" viewBox="0 0 80 13" fill="none" xmlns="http://www.w3.org/2000/svg">
<g id="Symbol + Logo">
<path id="Union" d="M14.626 0.00585938C14.7069 0.00609213 14.7602 0.0926083 14.7256 0.167969L12.7793 4.39551C12.761 4.43536 12.7214 4.46094 12.6787 4.46094H10.6826C10.3051 4.46105 9.96121 4.68444 9.7998 5.03516L8.85938 7.07715L6.58594 12.0146L6.43555 12.3408C6.25756 12.7274 5.87814 12.9736 5.46191 12.9736H1.83301C1.72314 12.9736 1.65021 12.8559 1.69727 12.7539L4.31152 7.07715L5.5166 4.46094L6.37793 2.58984L6.58594 2.13867L7.22754 0.746094C7.43566 0.294127 7.8785 0.00596445 8.36523 0.00585938H14.626ZM2.87988 0.00585938C2.92377 0.00585938 2.96195 0.0333855 2.98047 0.0742188H2.98145L4.92188 4.28809C4.95627 4.36261 4.90354 4.44892 4.82324 4.44922H0.109375C0.0489545 4.44907 0.000152863 4.399 0 4.33691V0.118164C0.000124674 0.0560561 0.0489371 0.0060116 0.109375 0.00585938H2.87988Z" fill="var(--fill-0, black)"/>
<path id="Vector" d="M23.8688 1.61542H19.5094V0H30.0261V1.61542H25.6667V13H23.8681V1.61542H23.8688Z" fill="var(--fill-0, black)"/>
<path id="Vector_2" d="M36.2722 3.00625V4.74343C36.1303 4.72504 36.0059 4.72504 35.8815 4.72504C34.0528 4.72504 32.9166 5.90203 32.9166 8.06855V13H31.2122V2.925H32.846V4.76253C33.4497 3.60465 34.6209 3.00696 36.2728 3.00696L36.2722 3.00625Z" fill="var(--fill-0, black)"/>
<path id="Vector_3" d="M45.8406 6.92975V13H44.2018V11.5847C43.6255 12.4789 42.5623 13 41.068 13C38.9068 13 37.538 11.8082 37.538 10.0953C37.538 8.51219 38.5283 7.2083 41.3742 7.2083H44.1118V6.8543C44.1118 5.34591 43.2654 4.47077 41.5543 4.47077C40.4194 4.47077 39.2669 4.88048 38.5283 5.53208L37.8081 4.19152C38.799 3.37209 40.2217 2.925 41.7521 2.925C44.3634 2.925 45.8406 4.22889 45.8406 6.92905V6.92975ZM44.1118 9.8725V8.49456H41.4465C39.7354 8.49456 39.2491 9.18353 39.2491 10.022C39.2491 11.0086 40.0416 11.6235 41.3565 11.6235C42.6714 11.6235 43.6801 11.0093 44.1118 9.87321V9.8725Z" fill="var(--fill-0, black)"/>
<path id="Vector_4" d="M57.9387 0V13H56.2694V11.3281C55.4887 12.4422 54.255 13 52.8393 13C50.0264 13 47.9756 10.9758 47.9756 7.96687C47.9756 4.95799 50.0264 2.95136 52.8393 2.95136C54.2007 2.95136 55.3979 3.47184 56.1965 4.53036V0.000704025H57.9387V0ZM56.2144 7.96617C56.2144 5.86741 54.8165 4.51137 52.9836 4.51137C51.1507 4.51137 49.735 5.86741 49.735 7.96617C49.735 10.0649 51.1321 11.4393 52.9836 11.4393C54.8351 11.4393 56.2144 10.0649 56.2144 7.96617Z" fill="var(--fill-0, black)"/>
<path id="Vector_5" d="M69.526 8.54957H61.7342C61.951 10.2815 63.3104 11.4359 65.2132 11.4359C66.3366 11.4359 67.2787 11.0452 67.9855 10.2441L68.9462 11.3985C68.0761 12.4408 66.7538 13 65.159 13C62.0601 13 59.9946 10.8957 59.9946 7.95369C59.9946 5.01165 62.0423 2.925 64.8145 2.925C67.5868 2.925 69.5624 4.97357 69.5624 8.00939C69.5624 8.15819 69.5446 8.38173 69.526 8.54957ZM61.7342 7.26472H67.8956C67.7145 5.60753 66.5006 4.4341 64.8145 4.4341C63.1285 4.4341 61.9153 5.58849 61.7342 7.26472Z" fill="var(--fill-0, black)"/>
<path id="Vector_6" d="M78.0423 13L75.2952 9.14089L72.512 13H70.5904L74.3432 7.84876L70.7699 2.925H72.6908L75.3129 6.55592L77.9165 2.925H79.8021L76.2111 7.84876L80 13H78.043H78.0423Z" fill="var(--fill-0, black)"/>
</g>
</svg>
