<svg width="28" height="28" viewBox="0 0 28 28" fill="none" xmlns="http://www.w3.org/2000/svg">
  <circle cx="14" cy="14" r="14" fill="#121212"/>
  <g transform="translate(6, 8) scale(1.1)">
    <path d="M14.626 0.00586C14.707 0.00609 14.76 0.09261 14.726 0.16797L12.779 4.39551C12.761 4.43536 12.721 4.46094 12.679 4.46094H10.683C10.305 4.46105 9.961 4.68444 9.8 5.03516L8.859 7.07715L6.586 12.0146L6.436 12.3408C6.258 12.7274 5.878 12.9736 5.462 12.9736H1.833C1.723 12.9736 1.65 12.8559 1.697 12.7539L4.312 7.07715L5.517 4.46094L6.378 2.58984L6.586 2.13867L7.228 0.746094C7.436 0.294127 7.879 0.00596 8.365 0.00586H14.626ZM2.88 0.00586C2.924 0.00586 2.962 0.03339 2.98 0.07422H2.981L4.922 4.28809C4.956 4.36261 4.904 4.44892 4.823 4.44922H0.109C0.049 4.44907 0 4.399 0 4.33691V0.118164C0 0.0560561 0.049 0.00601 0.109 0.00586H2.88Z" fill="white"/>
  </g>
</svg>
