<svg width="24" height="24" viewBox="0 0 24 24" fill="none" xmlns="http://www.w3.org/2000/svg">
<path fill-rule="evenodd" clip-rule="evenodd" d="M4.71094 4C4.31834 4.00009 4.00009 4.31834 4 4.71094V11.8223C4.00002 12.2149 4.3183 12.5331 4.71094 12.5332C5.10366 12.5332 5.42185 12.215 5.42188 11.8223V6.41309L17.7354 18.5762H12.1777C11.785 18.5762 11.4668 18.8944 11.4668 19.2871C11.4668 19.6798 11.785 19.998 12.1777 19.998H19.2891C19.6817 19.998 20 19.6798 20 19.2871V12.1758C19.9999 11.7832 19.6816 11.4649 19.2891 11.4648C18.8964 11.4648 18.5783 11.7832 18.5781 12.1758V17.4092L6.44336 5.42188H11.8223C12.215 5.42185 12.5332 5.10366 12.5332 4.71094C12.5331 4.3183 12.2149 4.00002 11.8223 4H4.71094Z" fill="#33363D"/>
</svg>
