<svg width="24" height="24" viewBox="0 0 24 24" fill="none" xmlns="http://www.w3.org/2000/svg">
<path d="M9.63071 1.50894C11.8918 0.998081 14.2574 1.23155 16.3749 2.17496C16.7532 2.34354 16.9233 2.78684 16.7547 3.16519C16.5861 3.54354 16.1429 3.71366 15.7645 3.54508C13.9426 2.73333 11.9073 2.53236 9.96177 2.97183C8.01615 3.41142 6.26459 4.46826 4.9686 5.98453C3.67261 7.50084 2.90161 9.39553 2.77036 11.3859C2.63917 13.3761 3.15456 15.3552 4.24009 17.0285C5.32568 18.7017 6.92289 19.9798 8.7938 20.6711C10.6649 21.3623 12.7101 21.43 14.6229 20.8644C16.5356 20.2988 18.2138 19.1299 19.4081 17.5324C20.6023 15.9349 21.2486 13.9946 21.2499 12.0002V11.0802C21.2499 10.666 21.5856 10.3302 21.9999 10.3302C22.4141 10.3302 22.7499 10.666 22.7499 11.0802V12.0002L22.7411 12.4347C22.6523 14.5992 21.9113 16.6903 20.6102 18.4308C19.2222 20.2875 17.2707 21.6456 15.0477 22.3029C12.8247 22.9601 10.4487 22.8816 8.27427 22.0783C6.0998 21.2749 4.24301 19.7896 2.9813 17.8449C1.71982 15.9003 1.12084 13.6001 1.27329 11.2873C1.42582 8.97417 2.32187 6.7721 3.82798 5.00992C5.33411 3.24775 7.3696 2.01984 9.63071 1.50894Z" fill="black"/>
<path d="M21.4696 3.46972C21.7624 3.17695 22.2372 3.17706 22.5302 3.46972C22.8229 3.76249 22.8228 4.23732 22.5302 4.53027L12.5302 14.54C12.3895 14.6807 12.1988 14.7597 11.9999 14.7598C11.801 14.7598 11.6103 14.6807 11.4696 14.54L8.46961 11.54C8.17684 11.2471 8.17676 10.7723 8.46961 10.4795C8.76247 10.1867 9.23729 10.1867 9.53016 10.4795L11.9989 12.9482L21.4696 3.46972Z" fill="black"/>
</svg>
