<svg width="24" height="24" viewBox="0 0 24 24" fill="none" xmlns="http://www.w3.org/2000/svg">
<path d="M17.499 12.9004C17.6003 12.9004 17.7106 12.9188 17.7998 12.9531L16.7578 14.5H4.7998C4.68944 14.5001 4.59961 14.5898 4.59961 14.7002V19.2002C4.59977 19.3105 4.68953 19.4003 4.7998 19.4004H11.9004L13.5 21H4.7998C3.80588 20.9999 3.00016 20.1941 3 19.2002V14.7002C3 13.7061 3.80578 12.9005 4.7998 12.9004H17.499ZM16.6797 4.59961H4.7998C4.6895 4.59971 4.59971 4.6895 4.59961 4.7998V9.2998C4.59961 9.4102 4.68944 9.49989 4.7998 9.5H12L13.6309 11.0996H4.7998C3.80578 11.0995 3 10.2939 3 9.2998V4.7998C3.00011 3.80585 3.80585 3.00011 4.7998 3H17.7695L16.6797 4.59961Z" fill="#131416"/>
<path fill-rule="evenodd" clip-rule="evenodd" d="M20.448 3.33841C20.8133 3.587 20.9079 4.08462 20.6593 4.44988L16.576 10.4499C16.4419 10.6469 16.227 10.7739 15.9897 10.7962C15.7525 10.8186 15.5176 10.7341 15.349 10.5656L12.8477 8.06562C12.5352 7.75328 12.5351 7.24675 12.8474 6.93425C13.1598 6.62175 13.6663 6.62161 13.9788 6.93395L15.7968 8.75097L19.3365 3.54969C19.5851 3.18442 20.0828 3.08983 20.448 3.33841Z" fill="#131416"/>
<path fill-rule="evenodd" clip-rule="evenodd" d="M20.448 13.3384C20.8133 13.587 20.9079 14.0846 20.6593 14.4499L16.576 20.4499C16.4419 20.6469 16.227 20.7739 15.9897 20.7962C15.7525 20.8186 15.5176 20.7341 15.349 20.5656L12.8477 18.0656C12.5352 17.7533 12.5351 17.2467 12.8474 16.9342C13.1598 16.6217 13.6663 16.6216 13.9788 16.934L15.7968 18.751L19.3365 13.5497C19.5851 13.1844 20.0828 13.0898 20.448 13.3384Z" fill="#131416"/>
</svg>
