<svg width="24" height="24" viewBox="0 0 24 24" fill="none" xmlns="http://www.w3.org/2000/svg">
<path d="M2.25 17.7998V3C2.25 2.58579 2.58579 2.25 3 2.25C3.41422 2.25 3.75 2.58579 3.75 3V17.7998C3.75 18.3722 3.75024 18.7569 3.77442 19.0527C3.79788 19.3397 3.84059 19.4768 3.88672 19.5674C4.00655 19.8025 4.1975 19.9935 4.43262 20.1133C4.52316 20.1594 4.66027 20.2021 4.94727 20.2256C5.24315 20.2498 5.62777 20.25 6.2002 20.25H21C21.4142 20.25 21.75 20.5858 21.75 21C21.75 21.4142 21.4142 21.75 21 21.75H6.2002C5.65252 21.75 5.19633 21.751 4.8252 21.7207C4.44547 21.6897 4.0891 21.6219 3.75196 21.4502C3.23451 21.1865 2.81346 20.7655 2.54981 20.248C2.3781 19.9109 2.31033 19.5545 2.2793 19.1748C2.24898 18.8037 2.25 18.3475 2.25 17.7998ZM6.25 17.5V14.5C6.25 14.0858 6.58579 13.75 7 13.75C7.41422 13.75 7.75 14.0858 7.75 14.5V17.5C7.75 17.9142 7.41422 18.25 7 18.25C6.58579 18.25 6.25 17.9142 6.25 17.5ZM10.75 17.5V11.5C10.75 11.0858 11.0858 10.75 11.5 10.75C11.9142 10.75 12.25 11.0858 12.25 11.5V17.5C12.25 17.9142 11.9142 18.25 11.5 18.25C11.0858 18.25 10.75 17.9142 10.75 17.5ZM15.25 17.5V8.5C15.25 8.08579 15.5858 7.75 16 7.75C16.4142 7.75 16.75 8.08579 16.75 8.5V17.5C16.75 17.9142 16.4142 18.25 16 18.25C15.5858 18.25 15.25 17.9142 15.25 17.5ZM19.75 17.5V5.5C19.75 5.08579 20.0858 4.75 20.5 4.75C20.9142 4.75 21.25 5.08579 21.25 5.5V17.5C21.25 17.9142 20.9142 18.25 20.5 18.25C20.0858 18.25 19.75 17.9142 19.75 17.5Z" fill="#131416"/>
</svg>
