<svg width="24" height="24" viewBox="0 0 24 24" fill="none" xmlns="http://www.w3.org/2000/svg">
<path d="M13.2496 10.0003C13.2496 9.3099 12.69 8.75025 11.9996 8.75025C11.3094 8.75037 10.7496 9.30997 10.7496 10.0003C10.7498 10.6904 11.3094 11.2501 11.9996 11.2503C12.6899 11.2503 13.2495 10.6905 13.2496 10.0003ZM4.39806 2.39869C4.69092 2.10584 5.1657 2.10591 5.45861 2.39869C5.7515 2.69158 5.7515 3.16635 5.45861 3.45924C1.84649 7.07147 1.84667 12.9279 5.45861 16.5403C5.7515 16.8332 5.7515 17.3089 5.45861 17.6018C5.16572 17.8943 4.69085 17.8945 4.39806 17.6018C0.19996 13.4037 0.200033 6.59684 4.39806 2.39869ZM18.5406 2.39869C18.8335 2.10584 19.3083 2.10591 19.6012 2.39869C23.7993 6.59683 23.7993 13.4037 19.6012 17.6018C19.3083 17.8943 18.8334 17.8945 18.5406 17.6018C18.2477 17.3089 18.2477 16.8332 18.5406 16.5403C22.1528 12.9279 22.1529 7.07154 18.5406 3.45924C18.2479 3.16637 18.2479 2.69156 18.5406 2.39869ZM7.22716 5.22682C7.52007 4.93416 7.99489 4.93401 8.28771 5.22682C8.58052 5.51963 8.58036 5.99445 8.28771 6.28736C6.23745 8.33762 6.23745 11.6619 8.28771 13.7122C8.5805 14.005 8.58039 14.4798 8.28771 14.7727C7.99482 15.0656 7.52006 15.0656 7.22716 14.7727C4.59112 12.1367 4.59112 7.86286 7.22716 5.22682ZM15.7125 5.22682C16.0054 4.93418 16.4803 4.93401 16.7731 5.22682C19.409 7.86278 19.4089 12.1367 16.7731 14.7727C16.4802 15.0656 16.0054 15.0656 15.7125 14.7727C15.4196 14.4798 15.4196 14.0051 15.7125 13.7122C17.7625 11.6619 17.7627 8.33754 15.7125 6.28736C15.4196 5.99447 15.4196 5.51971 15.7125 5.22682ZM14.7496 10.0003C14.7495 11.2587 13.9035 12.3172 12.7496 12.6438V21.0003C12.7495 21.4144 12.4138 21.7503 11.9996 21.7503C11.5856 21.7501 11.2498 21.4143 11.2496 21.0003V12.6428C10.096 12.316 9.24973 11.2585 9.24962 10.0003C9.24962 8.48154 10.4809 7.25037 11.9996 7.25025C13.5184 7.25025 14.7496 8.48147 14.7496 10.0003Z" fill="#131416"/>
</svg>
