<svg width="24" height="24" viewBox="0 0 24 24" fill="none" xmlns="http://www.w3.org/2000/svg">
<path d="M12.424 1.51953C12.6371 1.26396 12.9937 1.17997 13.299 1.3125C13.604 1.44516 13.7854 1.76265 13.7443 2.09277L12.8497 9.25H19.2921C19.5494 9.25 19.7942 9.24896 19.9894 9.2666C20.1691 9.28287 20.4659 9.32387 20.7179 9.52734C21.0166 9.76875 21.1885 10.1345 21.1828 10.5186C21.1779 10.8426 21.0188 11.0966 20.9162 11.2451C20.8047 11.4065 20.6474 11.5942 20.4826 11.792L11.5763 22.4805C11.3632 22.7361 11.0067 22.8201 10.7013 22.6875C10.3961 22.5549 10.2148 22.2374 10.256 21.9072L11.1505 14.75H4.70815C4.45067 14.75 4.20524 14.7511 4.0099 14.7334C3.83007 14.7171 3.53334 14.6763 3.28139 14.4727C2.9827 14.2312 2.81182 13.8654 2.81752 13.4814L2.82631 13.3633C2.86122 13.0957 2.99334 12.8849 3.08315 12.7549C3.19461 12.5935 3.35288 12.4058 3.51772 12.208L12.424 1.51953ZM4.67006 13.168C4.6462 13.1966 4.62296 13.2234 4.6017 13.249C4.63515 13.2491 4.67065 13.25 4.70815 13.25H12.0001C12.2152 13.25 12.4203 13.3427 12.5626 13.5039C12.7047 13.6651 12.7709 13.8795 12.7443 14.0928L12.0607 19.5537L19.3302 10.832C19.3541 10.8033 19.3763 10.7757 19.3976 10.75H12.0001C11.785 10.75 11.58 10.6574 11.4376 10.4961C11.2954 10.3349 11.2294 10.1205 11.256 9.90723L11.9386 4.44531L4.67006 13.168Z" fill="#131416"/>
</svg>
