<svg width="24" height="24" viewBox="0 0 24 24" fill="none" xmlns="http://www.w3.org/2000/svg">
<path d="M21.25 11.7998C21.25 10.9474 21.2497 10.3532 21.2119 9.89061C21.1748 9.43679 21.1055 9.17601 21.0049 8.9785C20.7892 8.55514 20.4449 8.21082 20.0215 7.9951C19.824 7.89448 19.5632 7.82515 19.1094 7.78807C18.6468 7.75028 18.0525 7.74999 17.2002 7.74999H2.75V16.2002C2.75 17.0525 2.75029 17.6468 2.78809 18.1094C2.82517 18.5632 2.8945 18.824 2.99512 19.0215C3.21084 19.4448 3.55516 19.7892 3.97852 20.0049C4.17603 20.1055 4.43681 20.1748 4.89063 20.2119C5.35322 20.2497 5.94746 20.25 6.79981 20.25H17.2002C18.0525 20.25 18.6468 20.2497 19.1094 20.2119C19.5632 20.1748 19.824 20.1055 20.0215 20.0049C20.4449 19.7892 20.7892 19.4448 21.0049 19.0215C21.1055 18.824 21.1748 18.5632 21.2119 18.1094C21.2497 17.6468 21.25 17.0525 21.25 16.2002V11.7998ZM14.9697 10.9697C15.2626 10.6768 15.7374 10.6768 16.0303 10.9697C16.3232 11.2626 16.3232 11.7374 16.0303 12.0303L11.5303 16.5303C11.2374 16.8232 10.7626 16.8232 10.4697 16.5303L8.46973 14.5303C8.17684 14.2374 8.17684 13.7626 8.46973 13.4697C8.76262 13.1768 9.23738 13.1768 9.53028 13.4697L11 14.9394L14.9697 10.9697ZM22.75 16.2002C22.75 17.0278 22.751 17.6936 22.707 18.2314C22.6624 18.778 22.5671 19.2579 22.3408 19.7021C21.9813 20.4077 21.4078 20.9813 20.7022 21.3408C20.258 21.5671 19.7781 21.6624 19.2314 21.707C18.6936 21.751 18.0278 21.75 17.2002 21.75H6.79981C5.97222 21.75 5.30639 21.751 4.76856 21.707C4.22195 21.6624 3.74206 21.5671 3.29786 21.3408C2.59225 20.9813 2.01871 20.4077 1.65918 19.7021C1.43287 19.2579 1.33763 18.778 1.29297 18.2314C1.24903 17.6936 1.25 17.0278 1.25 16.2002V6.20018C1.25 5.65251 1.24898 5.19631 1.2793 4.82518C1.31033 4.44545 1.3781 4.08908 1.54981 3.75194C1.81346 3.23449 2.23451 2.81344 2.75196 2.54979C3.0891 2.37808 3.44547 2.31032 3.8252 2.27928C4.19633 2.24896 4.65252 2.24999 5.2002 2.24999H9.02247C9.68574 2.24999 10.1962 2.24045 10.6602 2.40038C11.0455 2.53329 11.3973 2.74992 11.6885 3.03514C12.0392 3.37867 12.2589 3.84013 12.5557 4.43358L13.4639 6.24999H17.2002C18.0278 6.24999 18.6936 6.24902 19.2314 6.29296C19.7781 6.33762 20.258 6.43285 20.7022 6.65917C21.4078 7.01869 21.9813 7.59223 22.3408 8.29784C22.5671 8.74204 22.6624 9.22193 22.707 9.76854C22.751 10.3064 22.75 10.9722 22.75 11.7998V16.2002ZM2.75 6.24999H11.7861L11.2139 5.10448C10.8687 4.41422 10.7668 4.233 10.6387 4.10741C10.5064 3.97784 10.3469 3.87877 10.1719 3.81835C10.0022 3.75982 9.79461 3.74999 9.02247 3.74999H5.2002C4.62777 3.74999 4.24315 3.75023 3.94727 3.7744C3.66027 3.79786 3.52316 3.84057 3.43262 3.88671C3.19751 4.00653 3.00655 4.19749 2.88672 4.4326C2.84059 4.52315 2.79788 4.66025 2.77442 4.94725C2.75024 5.24313 2.75 5.62775 2.75 6.20018V6.24999Z" fill="#131416"/>
</svg>
