<svg width="24" height="24" viewBox="0 0 24 24" fill="none" xmlns="http://www.w3.org/2000/svg">
<path d="M19.2002 3C20.1942 3.00011 20.9999 3.80585 21 4.7998V19.2002C20.9999 20.1942 20.1942 20.9999 19.2002 21H4.7998C3.80585 20.9999 3.00011 20.1942 3 19.2002V4.7998C3.00011 3.80585 3.80585 3.00011 4.7998 3H19.2002ZM4.7998 4.59961C4.6895 4.59971 4.59971 4.6895 4.59961 4.7998V19.2002C4.59972 19.3105 4.6895 19.4003 4.7998 19.4004H19.2002C19.3105 19.4003 19.4003 19.3105 19.4004 19.2002V4.7998C19.4003 4.6895 19.3105 4.59972 19.2002 4.59961H4.7998ZM7.99902 11.2002C8.44079 11.2002 8.79872 11.5583 8.79883 12V17C8.79883 17.4418 8.44085 17.7998 7.99902 17.7998C7.55729 17.7997 7.19922 17.4418 7.19922 17V12C7.19932 11.5583 7.55735 11.2003 7.99902 11.2002ZM11.999 13.2002C12.4408 13.2002 12.7987 13.5583 12.7988 14V17C12.7988 17.4418 12.4409 17.7998 11.999 17.7998C11.5573 17.7997 11.1992 17.4418 11.1992 17V14C11.1993 13.5583 11.5574 13.2003 11.999 13.2002ZM15.999 6.2002C16.4408 6.2002 16.7987 6.55826 16.7988 7V17C16.7988 17.4418 16.4409 17.7998 15.999 17.7998C15.5573 17.7997 15.1992 17.4418 15.1992 17V7C15.1993 6.55833 15.5574 6.2003 15.999 6.2002ZM11.999 9.2002C12.4408 9.2002 12.7987 9.55826 12.7988 10V11C12.7988 11.4418 12.4409 11.7998 11.999 11.7998C11.5573 11.7997 11.1992 11.4418 11.1992 11V10C11.1993 9.55833 11.5574 9.2003 11.999 9.2002Z" fill="#131416"/>
</svg>
