<svg width="24" height="24" viewBox="0 0 24 24" fill="none" xmlns="http://www.w3.org/2000/svg">
<path d="M21.25 5C21.25 4.30964 20.6904 3.75 20 3.75H4C3.30964 3.75 2.75 4.30964 2.75 5V15C2.75 15.6904 3.30964 16.25 4 16.25H20C20.6904 16.25 21.25 15.6904 21.25 15V5ZM22.75 15C22.75 16.5188 21.5188 17.75 20 17.75H4C2.48122 17.75 1.25 16.5188 1.25 15V5C1.25 3.48122 2.48122 2.25 4 2.25H20C21.5188 2.25 22.75 3.48122 22.75 5V15Z" fill="black"/>
<path d="M16 20.25C16.4142 20.25 16.75 20.5858 16.75 21C16.75 21.4142 16.4142 21.75 16 21.75H8C7.58579 21.75 7.25 21.4142 7.25 21C7.25 20.5858 7.58579 20.25 8 20.25H16Z" fill="black"/>
<path d="M11.25 21V17C11.25 16.5858 11.5858 16.25 12 16.25C12.4142 16.25 12.75 16.5858 12.75 17V21C12.75 21.4142 12.4142 21.75 12 21.75C11.5858 21.75 11.25 21.4142 11.25 21Z" fill="black"/>
</svg>
