<svg width="24" height="24" viewBox="0 0 24 24" fill="none" xmlns="http://www.w3.org/2000/svg">
<path d="M4.26035 5.26743C4.60749 4.91086 5.17017 4.91086 5.51731 5.26743L11.4433 11.3544C11.7904 11.711 11.7904 12.289 11.4433 12.6456L5.51731 18.7326C5.17017 19.0891 4.60749 19.0891 4.26035 18.7326C3.91322 18.376 3.91322 17.798 4.26035 17.4415L9.55785 12L4.26035 6.55854C3.91322 6.20197 3.91322 5.624 4.26035 5.26743ZM12.5567 5.26743C12.9039 4.91086 13.4665 4.91086 13.8137 5.26743L19.7396 11.3544C20.0868 11.711 20.0868 12.289 19.7396 12.6456L13.8137 18.7326C13.4665 19.0891 12.9039 19.0891 12.5567 18.7326C12.2096 18.376 12.2096 17.798 12.5567 17.4415L17.8542 12L12.5567 6.55854C12.2096 6.20197 12.2096 5.624 12.5567 5.26743Z" fill="#323232"/>
</svg>
