<svg width="24" height="24" viewBox="0 0 24 24" fill="none" xmlns="http://www.w3.org/2000/svg">
<path d="M2 12C2 17.5228 6.47715 22 12 22C17.5228 22 22 17.5228 22 12C22 6.47715 17.5228 2 12 2C6.47715 2 2 6.47715 2 12Z" fill="#131416"/>
<path d="M14.4355 8.43457C14.748 8.12235 15.2541 8.12222 15.5664 8.43457C15.8788 8.74692 15.8786 9.25299 15.5664 9.56543L13.1309 12.001L15.5645 14.4346C15.8769 14.747 15.8769 15.253 15.5645 15.5654C15.252 15.8778 14.746 15.8778 14.4336 15.5654L12 13.1318L9.56641 15.5654C9.25399 15.8778 8.74797 15.8778 8.43555 15.5654C8.12313 15.253 8.12313 14.747 8.43555 14.4346L10.8691 12.001L8.43359 9.56543C8.12137 9.25299 8.12124 8.74692 8.43359 8.43457C8.74595 8.12222 9.25202 8.12235 9.56445 8.43457L12 10.8701L14.4355 8.43457Z" fill="white"/>
</svg>
