<svg width="203" height="32" viewBox="0 0 203 32" fill="none" xmlns="http://www.w3.org/2000/svg">
<path fill-rule="evenodd" clip-rule="evenodd" d="M37.1123 0.0136719C37.318 0.0136719 37.4538 0.227408 37.3662 0.413086L32.4258 10.8193C32.3794 10.9173 32.2811 10.9803 32.1729 10.9805H27.1074C26.1495 10.9806 25.2769 11.5304 24.8672 12.3936L22.4814 17.4199L16.7119 29.5742L16.3301 30.3779C15.8784 31.3296 14.9165 31.9355 13.8604 31.9355H4.65039C4.37178 31.9355 4.18768 31.6464 4.30664 31.3955L10.9414 17.4199L13.999 10.9805L16.1846 6.375L16.7119 5.26562L18.3389 1.83691C18.867 0.723883 19.992 0.0146484 21.2275 0.0146484H37.1123V0.0136719ZM7.30859 0.0136719C7.41987 0.0138056 7.51754 0.0821205 7.56445 0.182617L7.56543 0.183594L12.4893 10.5566C12.5763 10.7402 12.4423 10.9519 12.2383 10.9521H0.27832C0.124454 10.9521 2.32414e-05 10.8282 0 10.6748V0.291016C0.000235817 0.137833 0.124586 0.0136719 0.27832 0.0136719H7.30859Z" fill="black"/>
<path d="M60.5672 3.97641H49.5054V0H76.1914V3.97641H65.1295V32H60.5655V3.97641H60.5672Z" fill="black"/>
<path d="M92.0404 7.39995V11.6761C91.6804 11.6308 91.3648 11.6308 91.0492 11.6308C86.4087 11.6308 83.5255 14.528 83.5255 19.861V32H79.2007V7.19995H83.3464V11.7231C84.8784 8.87292 87.8503 7.40169 92.0421 7.40169L92.0404 7.39995Z" fill="black"/>
<path d="M116.32 17.0578V32H112.162V28.5161C110.699 30.7172 108.002 32 104.21 32C98.7257 32 95.2524 29.0664 95.2524 24.85C95.2524 20.953 97.7652 17.7435 104.987 17.7435H111.933V16.8721C111.933 13.1591 109.786 11.0049 105.444 11.0049C102.564 11.0049 99.6394 12.0135 97.7652 13.6174L95.9377 10.3175C98.4523 8.30048 102.062 7.19995 105.946 7.19995C112.572 7.19995 116.32 10.4095 116.32 17.0561V17.0578ZM111.933 24.3015V20.9096H105.17C100.828 20.9096 99.5944 22.6056 99.5944 24.6695C99.5944 27.0979 101.605 28.6116 104.942 28.6116C108.278 28.6116 110.838 27.0997 111.933 24.3032V24.3015Z" fill="black"/>
<path d="M147.02 0V31.9999H142.784V27.8846C140.803 30.627 137.672 31.9999 134.08 31.9999C126.942 31.9999 121.738 27.0172 121.738 19.6108C121.738 12.2043 126.942 7.2649 134.08 7.2649C137.535 7.2649 140.573 8.54606 142.599 11.1517V0.00173299H147.02V0ZM142.644 19.609C142.644 14.4428 139.097 11.1049 134.446 11.1049C129.795 11.1049 126.203 14.4428 126.203 19.609C126.203 24.7752 129.748 28.1582 134.446 28.1582C139.144 28.1582 142.644 24.7752 142.644 19.609Z" fill="black"/>
<path d="M176.422 21.045H156.65C157.201 25.3083 160.65 28.1498 165.479 28.1498C168.329 28.1498 170.72 27.1882 172.513 25.2163L174.951 28.0578C172.743 30.6234 169.388 32 165.341 32C157.477 32 152.236 26.8202 152.236 19.5783C152.236 12.3363 157.432 7.19995 164.467 7.19995C171.502 7.19995 176.515 12.2426 176.515 19.7154C176.515 20.0816 176.469 20.6319 176.422 21.045ZM156.65 17.8823H172.285C171.825 13.8031 168.745 10.9147 164.467 10.9147C160.189 10.9147 157.11 13.7562 156.65 17.8823Z" fill="black"/>
<path d="M198.032 32L191.062 22.5006L183.999 32H179.123L188.646 19.32L179.579 7.19995H184.453L191.106 16.1376L197.713 7.19995H202.498L193.386 19.32L203 32H198.034H198.032Z" fill="black"/>
</svg>
