<svg width="16" height="16" viewBox="0 0 16 16" fill="none" xmlns="http://www.w3.org/2000/svg">
<path d="M9.00098 1.33301C9.14232 1.33301 9.27793 1.38938 9.37793 1.48926L13.1777 5.29004C13.2776 5.39003 13.334 5.52567 13.334 5.66699V13.4668C13.334 14.1295 12.7965 14.667 12.1338 14.667H3.86719C3.20466 14.6667 2.66797 14.1294 2.66797 13.4668V2.5332C2.66804 1.87067 3.2047 1.33325 3.86719 1.33301H9.00098ZM3.86719 2.40039C3.7938 2.40064 3.73445 2.45978 3.73438 2.5332V13.4668C3.73438 13.5403 3.79376 13.6003 3.86719 13.6006H12.1338C12.2074 13.6006 12.2676 13.5404 12.2676 13.4668V6.2002H9.66797C9.00523 6.2002 8.46777 5.66274 8.46777 5V2.40039H3.86719ZM9.96094 7.03223C10.1271 6.78913 10.459 6.72665 10.7021 6.89258C10.9453 7.05872 11.0078 7.39061 10.8418 7.63379L8.1084 11.6338C8.01887 11.7648 7.87577 11.8495 7.71777 11.8643C7.55978 11.879 7.40326 11.8221 7.29102 11.71L5.62305 10.0439C5.41481 9.83572 5.41487 9.49737 5.62305 9.28906C5.83127 9.08086 6.16963 9.0809 6.37793 9.28906L7.59082 10.502L9.96094 7.03223ZM9.53418 5C9.53418 5.07364 9.59433 5.13379 9.66797 5.13379H11.5127L9.53418 3.1543V5Z" fill="#8F8F8F"/>
</svg>
