<svg width="16" height="16" viewBox="0 0 16 16" fill="none" xmlns="http://www.w3.org/2000/svg">
<path d="M9.66732 14.1666C9.94346 14.1666 10.1673 14.3904 10.1673 14.6666C10.1673 14.9427 9.94346 15.1666 9.66732 15.1666H6.33398C6.05784 15.1666 5.83398 14.9427 5.83398 14.6666C5.83398 14.3904 6.05784 14.1666 6.33398 14.1666H9.66732ZM12.1673 5.99992C12.1673 3.69873 10.3018 1.83325 8.00065 1.83325C5.69946 1.83325 3.83398 3.69873 3.83398 5.99992C3.83398 7.66131 4.80663 9.09626 6.21549 9.76554C6.38974 9.84837 6.5006 10.0244 6.50065 10.2174V10.6666C6.50065 10.9839 6.50113 11.1969 6.51237 11.3619C6.52332 11.5224 6.5425 11.6008 6.5638 11.6523C6.64838 11.8565 6.81078 12.0189 7.01497 12.1034C7.06641 12.1247 7.14486 12.1439 7.30534 12.1549C7.47029 12.1661 7.6833 12.1666 8.00065 12.1666C8.31801 12.1666 8.53101 12.1661 8.69596 12.1549C8.85644 12.1439 8.93489 12.1247 8.98633 12.1034C9.19052 12.0189 9.35292 11.8565 9.4375 11.6523C9.4588 11.6008 9.47798 11.5224 9.48893 11.3619C9.50018 11.1969 9.50065 10.9839 9.50065 10.6666V10.2174C9.5007 10.0244 9.61156 9.84837 9.78581 9.76554C11.1947 9.09626 12.1673 7.66131 12.1673 5.99992ZM13.1673 5.99992C13.1673 7.94708 12.0897 9.64098 10.5007 10.5214V10.6666C10.5007 10.9704 10.5011 11.2233 10.487 11.4303C10.4726 11.6416 10.4415 11.8415 10.3613 12.0351C10.1753 12.4842 9.81826 12.8412 9.36914 13.0273C9.17557 13.1074 8.97569 13.1385 8.76432 13.1529C8.55741 13.167 8.30444 13.1666 8.00065 13.1666C7.69686 13.1666 7.44389 13.167 7.23698 13.1529C7.02561 13.1385 6.82573 13.1074 6.63216 13.0273C6.18304 12.8412 5.82604 12.4842 5.63997 12.0351C5.5598 11.8415 5.52875 11.6416 5.51432 11.4303C5.50021 11.2233 5.50065 10.9704 5.50065 10.6666V10.5214C3.91157 9.64098 2.83398 7.94708 2.83398 5.99992C2.83398 3.14645 5.14718 0.833252 8.00065 0.833252C10.8541 0.833252 13.1673 3.14645 13.1673 5.99992Z" fill="#8F8F8F"/>
</svg>
