<svg width="16" height="16" viewBox="0 0 16 16" fill="none" xmlns="http://www.w3.org/2000/svg">
<g clip-path="url(#clip0_0_97)">
<path d="M0.833984 7.99992C0.833984 4.04188 4.04261 0.833252 8.00065 0.833252C8.27679 0.833252 8.50065 1.05711 8.50065 1.33325C8.50065 1.60939 8.27679 1.83325 8.00065 1.83325C4.59489 1.83325 1.83398 4.59416 1.83398 7.99992C1.83398 11.4057 4.59489 14.1666 8.00065 14.1666C11.4064 14.1666 14.1673 11.4057 14.1673 7.99992C14.1673 7.72378 14.3912 7.49992 14.6673 7.49992C14.9435 7.49992 15.1673 7.72378 15.1673 7.99992C15.1673 11.958 11.9587 15.1666 8.00065 15.1666C4.04261 15.1666 0.833984 11.958 0.833984 7.99992ZM4.16732 7.99992C4.16732 5.88283 5.88356 4.16658 8.00065 4.16658C8.27679 4.16658 8.50065 4.39044 8.50065 4.66658C8.50065 4.94273 8.27679 5.16658 8.00065 5.16658C6.43584 5.16658 5.16732 6.43511 5.16732 7.99992C5.16732 9.56472 6.43584 10.8333 8.00065 10.8333C9.56546 10.8333 10.834 9.56472 10.834 7.99992C10.834 7.72378 11.0578 7.49992 11.334 7.49992C11.6101 7.49992 11.834 7.72378 11.834 7.99992C11.834 10.117 10.1177 11.8333 8.00065 11.8333C5.88356 11.8333 4.16732 10.117 4.16732 7.99992ZM12.7474 0.839762C12.906 0.865513 13.0427 0.966198 13.1146 1.10994L13.7064 2.29354L14.8906 2.88599C15.0344 2.95786 15.1351 3.09453 15.1608 3.25317C15.1865 3.41181 15.1345 3.57312 15.0208 3.68677L13.0208 5.68677C12.9271 5.78053 12.7999 5.83324 12.6673 5.83325H10.8743L8.35417 8.35343C8.15891 8.54868 7.8424 8.54867 7.64713 8.35343C7.45188 8.15817 7.45188 7.84166 7.64713 7.6464L10.1673 5.12622V3.33325C10.1673 3.20064 10.22 3.0735 10.3138 2.97974L12.3138 0.979736L12.3587 0.940023C12.4679 0.854344 12.6086 0.817245 12.7474 0.839762ZM11.1673 3.54028V4.83325H12.4603L13.8229 3.46997L13.11 3.11385C13.0134 3.06546 12.9351 2.98658 12.8867 2.88989L12.5299 2.177L11.1673 3.54028Z" fill="#8F8F8F"/>
</g>
<defs>
<clipPath id="clip0_0_97">
<rect width="16" height="16" fill="white"/>
</clipPath>
</defs>
</svg>
