<svg width="16" height="16" viewBox="0 0 16 16" fill="none" xmlns="http://www.w3.org/2000/svg">
<g clip-path="url(#clip0_0_105)">
<path d="M14.1673 7.99992C14.1673 4.59416 11.4064 1.83325 8.00065 1.83325C4.59489 1.83325 1.83398 4.59416 1.83398 7.99992C1.83398 11.4057 4.59489 14.1666 8.00065 14.1666C11.4064 14.1666 14.1673 11.4057 14.1673 7.99992ZM9.83398 6.22192C9.83387 5.63913 9.36144 5.1667 8.77865 5.16658H7.33398C6.68965 5.16658 6.16732 5.68892 6.16732 6.33325C6.16732 6.97758 6.68965 7.49992 7.33398 7.49992H8.66732C9.86393 7.49992 10.834 8.46997 10.834 9.66658C10.834 10.8632 9.86393 11.8333 8.66732 11.8333H8.50065V12.3333C8.50065 12.6094 8.27679 12.8333 8.00065 12.8333C7.72451 12.8333 7.50065 12.6094 7.50065 12.3333V11.8333H7.22266C6.08758 11.8331 5.16743 10.913 5.16732 9.77791C5.16732 9.50177 5.39118 9.27791 5.66732 9.27791C5.94346 9.27791 6.16732 9.50177 6.16732 9.77791C6.16743 10.3607 6.63986 10.8331 7.22266 10.8333H8.66732C9.31165 10.8333 9.83398 10.3109 9.83398 9.66658C9.83398 9.02225 9.31165 8.49992 8.66732 8.49992H7.33398C6.13737 8.49992 5.16732 7.52987 5.16732 6.33325C5.16732 5.13663 6.13737 4.16658 7.33398 4.16658H7.50065V3.66659C7.50065 3.39044 7.72451 3.16659 8.00065 3.16659C8.27679 3.16659 8.50065 3.39044 8.50065 3.66659V4.16658H8.77865C9.91372 4.1667 10.8339 5.08684 10.834 6.22192C10.834 6.49807 10.6101 6.72192 10.334 6.72192C10.0578 6.72192 9.83398 6.49807 9.83398 6.22192ZM15.1673 7.99992C15.1673 11.958 11.9587 15.1666 8.00065 15.1666C4.04261 15.1666 0.833984 11.958 0.833984 7.99992C0.833984 4.04188 4.04261 0.833252 8.00065 0.833252C11.9587 0.833252 15.1673 4.04188 15.1673 7.99992Z" fill="#8F8F8F"/>
</g>
<defs>
<clipPath id="clip0_0_105">
<rect width="16" height="16" fill="white"/>
</clipPath>
</defs>
</svg>
