<svg width="16" height="16" viewBox="0 0 16 16" fill="none" xmlns="http://www.w3.org/2000/svg">
<path d="M1.5 11.8665V2C1.5 1.72386 1.72386 1.5 2 1.5C2.27615 1.5 2.5 1.72386 2.5 2V11.8665C2.5 12.2482 2.50016 12.5046 2.51628 12.7018C2.53192 12.8932 2.56039 12.9846 2.59115 13.0449C2.67103 13.2017 2.79834 13.329 2.95508 13.4089C3.01544 13.4396 3.10685 13.4681 3.29818 13.4837C3.49543 13.4998 3.75185 13.5 4.13347 13.5H14C14.2761 13.5 14.5 13.7239 14.5 14C14.5 14.2761 14.2761 14.5 14 14.5H4.13347C3.76835 14.5 3.46422 14.5007 3.2168 14.4805C2.96364 14.4598 2.72607 14.4146 2.5013 14.3001C2.15634 14.1244 1.87564 13.8437 1.69987 13.4987C1.5854 13.2739 1.54022 13.0364 1.51953 12.7832C1.49932 12.5358 1.5 12.2317 1.5 11.8665ZM4.16667 11.6667V9.66667C4.16667 9.39052 4.39053 9.16667 4.66667 9.16667C4.94281 9.16667 5.16667 9.39052 5.16667 9.66667V11.6667C5.16667 11.9428 4.94281 12.1667 4.66667 12.1667C4.39053 12.1667 4.16667 11.9428 4.16667 11.6667ZM7.16667 11.6667V7.66667C7.16667 7.39052 7.39053 7.16667 7.66667 7.16667C7.94281 7.16667 8.16667 7.39052 8.16667 7.66667V11.6667C8.16667 11.9428 7.94281 12.1667 7.66667 12.1667C7.39053 12.1667 7.16667 11.9428 7.16667 11.6667ZM10.1667 11.6667V5.66667C10.1667 5.39052 10.3905 5.16667 10.6667 5.16667C10.9428 5.16667 11.1667 5.39052 11.1667 5.66667V11.6667C11.1667 11.9428 10.9428 12.1667 10.6667 12.1667C10.3905 12.1667 10.1667 11.9428 10.1667 11.6667ZM13.1667 11.6667V3.66667C13.1667 3.39052 13.3905 3.16667 13.6667 3.16667C13.9428 3.16667 14.1667 3.39052 14.1667 3.66667V11.6667C14.1667 11.9428 13.9428 12.1667 13.6667 12.1667C13.3905 12.1667 13.1667 11.9428 13.1667 11.6667Z" fill="#8F8F8F"/>
</svg>
