<svg width="16" height="16" viewBox="0 0 16 16" fill="none" xmlns="http://www.w3.org/2000/svg">
<path d="M8.2833 1.01298C8.42541 0.842598 8.66309 0.786605 8.86663 0.87496C9.07 0.963398 9.19094 1.17506 9.1635 1.39514L8.56715 6.16663H12.8621C13.0336 6.16663 13.1968 6.16593 13.3269 6.17769C13.4467 6.18854 13.6446 6.21587 13.8126 6.35152C14.0117 6.51246 14.1263 6.7563 14.1225 7.01233C14.1192 7.22835 14.0132 7.39766 13.9448 7.4967C13.8705 7.60427 13.7656 7.72945 13.6557 7.86129L7.71819 14.9869C7.57609 15.1574 7.33843 15.2133 7.13486 15.125C6.93138 15.0366 6.81053 14.8249 6.83798 14.6048L7.43434 9.83329H3.13942C2.96776 9.83329 2.80414 9.83401 2.67392 9.82222C2.55403 9.81136 2.35621 9.78413 2.18824 9.6484C1.98912 9.48746 1.8752 9.24359 1.879 8.98759L1.88486 8.90881C1.90813 8.73041 1.99621 8.58992 2.05608 8.50321C2.13039 8.39563 2.23591 8.2705 2.3458 8.13863L8.2833 1.01298ZM3.11402 8.7786C3.09812 8.79769 3.08263 8.81558 3.06845 8.83264C3.09075 8.83267 3.11442 8.83329 3.13942 8.83329H8.00074C8.14412 8.83332 8.28085 8.89507 8.37574 9.00256C8.47048 9.11001 8.51456 9.25299 8.49684 9.39514L8.04111 13.0358L12.8875 7.22131C12.9034 7.20217 12.9182 7.18373 12.9324 7.16663H8.00074C7.85733 7.16663 7.72066 7.10487 7.62574 6.99735C7.53094 6.88989 7.48692 6.74698 7.50465 6.60478L7.95973 2.9635L3.11402 8.7786Z" fill="#8F8F8F"/>
</svg>
