<svg width="16" height="16" viewBox="0 0 16 16" fill="none" xmlns="http://www.w3.org/2000/svg">
<g clip-path="url(#clip0_0_68)">
<path d="M9.50049 9.0664C9.50049 8.87162 9.50036 8.75531 9.49333 8.66926C9.48677 8.58922 9.47669 8.58022 9.48226 8.59114C9.46628 8.55978 9.4407 8.5342 9.40934 8.51822C9.42026 8.52379 9.41126 8.51371 9.33122 8.50715C9.24517 8.50012 9.12886 8.49999 8.93408 8.49999H7.06689C6.87212 8.49999 6.7558 8.50012 6.66976 8.50715C6.58972 8.51371 6.58071 8.52379 6.59163 8.51822C6.56027 8.5342 6.53469 8.55978 6.51872 8.59114C6.52428 8.58022 6.5142 8.58922 6.50765 8.66926C6.50062 8.75531 6.50049 8.87162 6.50049 9.0664V13.5H9.50049V9.0664ZM13.8338 11.8665C13.8338 12.2316 13.8345 12.5358 13.8143 12.7832C13.7936 13.0364 13.7484 13.2739 13.6339 13.4987C13.4582 13.8437 13.1775 14.1244 12.8325 14.3001C12.6078 14.4146 12.3702 14.4598 12.117 14.4805C11.8696 14.5007 11.5655 14.5 11.2004 14.5H4.80062C4.4355 14.5 4.13137 14.5007 3.88395 14.4805C3.6308 14.4598 3.39322 14.4146 3.16845 14.3001C2.82349 14.1244 2.54279 13.8437 2.36702 13.4987C2.25255 13.2739 2.20737 13.0364 2.18668 12.7832C2.16647 12.5358 2.16715 12.2316 2.16715 11.8665V6.33268L1.63395 6.73307C1.41311 6.8987 1.09981 6.85419 0.93408 6.63346C0.768447 6.41261 0.812956 6.09931 1.03369 5.93359L7.06038 1.4134C7.25429 1.26797 7.46007 1.10251 7.70361 1.0384C7.89822 0.987198 8.10276 0.987199 8.29736 1.0384C8.5409 1.10251 8.74668 1.26797 8.94059 1.4134L14.9673 5.93359C15.188 6.09931 15.2325 6.41261 15.0669 6.63346C14.9012 6.85419 14.5879 6.8987 14.367 6.73307L13.8338 6.33268V11.8665ZM10.5005 13.5H11.2004C11.582 13.5 11.8384 13.4998 12.0356 13.4837C12.227 13.4681 12.3184 13.4396 12.3787 13.4088C12.5355 13.329 12.6628 13.2017 12.7427 13.0449C12.7734 12.9846 12.8019 12.8931 12.8175 12.7018C12.8337 12.5046 12.8338 12.2481 12.8338 11.8665V5.58268L8.9803 2.69335L8.67106 2.46353C8.41709 2.27927 8.31362 2.22058 8.21273 2.194C8.07367 2.1574 7.9273 2.1574 7.78825 2.194C7.65373 2.22943 7.51511 2.32252 7.02067 2.69335L3.16715 5.58268V11.8665C3.16715 12.2481 3.16731 12.5046 3.18343 12.7018C3.19907 12.8932 3.22754 12.9846 3.2583 13.0449C3.33818 13.2017 3.46549 13.329 3.62223 13.4088C3.68259 13.4396 3.774 13.4681 3.96533 13.4837C4.16258 13.4998 4.419 13.5 4.80062 13.5H5.50049V9.0664C5.50049 8.88807 5.50043 8.72407 5.51155 8.58788C5.52317 8.44585 5.54925 8.29017 5.62744 8.13671C5.73927 7.91731 5.9178 7.73878 6.13721 7.62695C6.29066 7.54876 6.44635 7.52268 6.58838 7.51106C6.72456 7.49993 6.88856 7.49999 7.06689 7.49999H8.93408C9.11241 7.49999 9.27641 7.49993 9.4126 7.51106C9.55463 7.52268 9.71031 7.54875 9.86377 7.62695C10.0832 7.73878 10.2617 7.91731 10.3735 8.13671C10.4517 8.29019 10.4785 8.44584 10.4901 8.58788C10.5012 8.72407 10.5005 8.88807 10.5005 9.0664V13.5Z" fill="#121212"/>
</g>
<defs>
<clipPath id="clip0_0_68">
<rect width="16" height="16" fill="white"/>
</clipPath>
</defs>
</svg>
