<svg width="20" height="20" viewBox="0 0 20 20" fill="none" xmlns="http://www.w3.org/2000/svg">
<g clip-path="url(#clip0_4001_21160)">
<path d="M17.7829 5.6417C17.4496 5.30836 16.8913 5.3167 16.5746 5.67503L13.7996 8.7917L9.09128 4.42503C8.43294 3.8167 7.41628 3.83336 6.78294 4.4667L2.24961 9.00836C1.92461 9.33336 1.92461 9.85836 2.24961 10.1834L2.32461 10.2584C2.64961 10.5834 3.17461 10.5834 3.49961 10.2584L8.03294 5.7167L12.6913 10.0417L11.2496 11.6667L9.09961 9.5167C8.44961 8.8667 7.39128 8.8667 6.74128 9.5167L2.24961 14C1.92461 14.325 1.92461 14.85 2.24961 15.175L2.33294 15.25C2.65794 15.575 3.18294 15.575 3.50794 15.25L7.92461 10.8334L10.0079 12.9167C10.6829 13.5917 11.7913 13.5584 12.4329 12.8417L13.9163 11.1667L16.5746 13.6334C16.8996 13.9334 17.4079 13.925 17.7246 13.6084L17.7329 13.6C18.0663 13.2667 18.0579 12.725 17.7079 12.4084L15.0246 9.9167L17.8163 6.77503C18.1079 6.45003 18.0913 5.95003 17.7829 5.6417Z" fill="#121212"/>
</g>
<defs>
<clipPath id="clip0_4001_21160">
<rect width="20" height="20" fill="white"/>
</clipPath>
</defs>
</svg>
