<svg width="20" height="20" viewBox="0 0 20 20" fill="none" xmlns="http://www.w3.org/2000/svg">
<path d="M10.75 9.25H15.9625C15.775 7.875 15.2032 6.70925 14.2472 5.75275C13.2908 4.79675 12.125 4.225 10.75 4.0375V9.25ZM9.25 15.9625V4.0375C7.7375 4.225 6.4845 4.88425 5.491 6.01525C4.497 7.14675 4 8.475 4 10C4 11.525 4.497 12.853 5.491 13.984C6.4845 15.1155 7.7375 15.775 9.25 15.9625ZM10.75 15.9625C12.125 15.7875 13.2937 15.2187 14.2562 14.2562C15.2187 13.2937 15.7875 12.125 15.9625 10.75H10.75V15.9625ZM10 17.5C8.9625 17.5 7.9875 17.303 7.075 16.909C6.1625 16.5155 5.36875 15.9813 4.69375 15.3063C4.01875 14.6313 3.4845 13.8375 3.091 12.925C2.697 12.0125 2.5 11.0375 2.5 10C2.5 8.9625 2.697 7.9875 3.091 7.075C3.4845 6.1625 4.01875 5.36875 4.69375 4.69375C5.36875 4.01875 6.1625 3.48425 7.075 3.09025C7.9875 2.69675 8.9625 2.5 10 2.5C11.0375 2.5 12.0092 2.69675 12.9152 3.09025C13.8217 3.48425 14.6155 4.022 15.2965 4.7035C15.978 5.3845 16.5155 6.17825 16.909 7.08475C17.303 7.99075 17.5 8.9625 17.5 10C17.5 11.025 17.303 11.9937 16.909 12.9062C16.5155 13.8188 15.9813 14.6155 15.3063 15.2965C14.6313 15.978 13.8375 16.5155 12.925 16.909C12.0125 17.303 11.0375 17.5 10 17.5Z" fill="#121212"/>
</svg>
