<svg width="20" height="20" viewBox="0 0 20 20" fill="none" xmlns="http://www.w3.org/2000/svg">
<path fill-rule="evenodd" clip-rule="evenodd" d="M10 1.66699C14.6023 1.66699 18.333 5.39766 18.333 10C18.333 14.6024 14.6023 18.333 10 18.333C5.39763 18.333 1.66699 14.6024 1.66699 10C1.66699 5.39767 5.39762 1.66699 10 1.66699ZM10 3C6.13401 3 3 6.13404 3 10C3 13.866 6.13401 17 10 17C13.866 17 17 13.866 17 10C17 6.13404 13.866 3 10 3ZM9.99902 10.666C10.5636 10.666 11.1209 10.7916 11.6367 11.0322C12.1523 11.2728 12.615 11.6234 12.999 12.0586C13.2426 12.3347 13.2165 12.7564 12.9404 13C12.6643 13.2435 12.2426 13.2165 11.999 12.9404C11.7315 12.6373 11.4159 12.4011 11.0732 12.2412C10.7307 12.0813 10.3655 12 9.99902 12C9.6327 12 9.26822 12.0814 8.92578 12.2412C8.58298 12.4012 8.26667 12.6371 7.99902 12.9404C7.75552 13.2164 7.3347 13.2433 7.05859 13C6.78253 12.7564 6.75553 12.3347 6.99902 12.0586C7.38309 11.6233 7.84565 11.2729 8.36133 11.0322C8.8772 10.7915 9.43435 10.6661 9.99902 10.666ZM7.5 7.5C7.96013 7.5 8.33283 7.87292 8.33301 8.33301C8.33301 8.79324 7.96024 9.16699 7.5 9.16699C7.03976 9.16699 6.66699 8.79324 6.66699 8.33301C6.66717 7.87292 7.03987 7.5 7.5 7.5ZM12.5 7.5C12.9601 7.5 13.3328 7.87292 13.333 8.33301C13.333 8.79325 12.9602 9.16699 12.5 9.16699C12.0398 9.16699 11.667 8.79324 11.667 8.33301C11.6672 7.87292 12.0399 7.5 12.5 7.5Z" fill="#121212"/>
</svg>
