<svg width="20" height="20" viewBox="0 0 20 20" fill="none" xmlns="http://www.w3.org/2000/svg">
<path fill-rule="evenodd" clip-rule="evenodd" d="M10 1.66699C14.6023 1.66699 18.333 5.39766 18.333 10C18.333 14.6024 14.6023 18.333 10 18.333C5.39763 18.333 1.66699 14.6024 1.66699 10C1.66699 5.39767 5.39762 1.66699 10 1.66699ZM10 3C6.13401 3 3 6.13404 3 10C3 13.866 6.13401 17 10 17C13.866 17 17 13.866 17 10C17 6.13404 13.866 3 10 3ZM11.999 11.3926C12.2426 11.1165 12.6643 11.0896 12.9404 11.333C13.2165 11.5766 13.2426 11.9983 12.999 12.2744C12.615 12.7097 12.1523 13.0602 11.6367 13.3008C11.1209 13.5414 10.5636 13.667 9.99902 13.667C9.43435 13.6669 8.8772 13.5415 8.36133 13.3008C7.84566 13.0601 7.38308 12.7097 6.99902 12.2744C6.75557 11.9983 6.78254 11.5766 7.05859 11.333C7.3347 11.0897 7.75553 11.1166 7.99902 11.3926C8.26668 11.6959 8.58296 11.9318 8.92578 12.0918C9.26823 12.2516 9.63269 12.333 9.99902 12.333C10.3655 12.333 10.7307 12.2517 11.0732 12.0918C11.4159 11.9319 11.7315 11.6957 11.999 11.3926ZM7.5 7.5C7.96013 7.5 8.33283 7.87292 8.33301 8.33301C8.33301 8.79324 7.96024 9.16699 7.5 9.16699C7.03976 9.16699 6.66699 8.79324 6.66699 8.33301C6.66717 7.87292 7.03987 7.5 7.5 7.5ZM12.5 7.5C12.9601 7.5 13.3328 7.87292 13.333 8.33301C13.333 8.79325 12.9602 9.16699 12.5 9.16699C12.0398 9.16699 11.667 8.79324 11.667 8.33301C11.6672 7.87292 12.0399 7.5 12.5 7.5Z" fill="#121212"/>
</svg>
