<svg width="24" height="24" viewBox="0 0 24 24" fill="none" xmlns="http://www.w3.org/2000/svg">
<g clip-path="url(#clip0_4001_21087)">
<path d="M19 21H5C3.9 21 3 20.1 3 19V5C3 3.9 3.9 3 5 3H19C20.1 3 21 3.9 21 5V19C21 20.1 20.1 21 19 21ZM8 7C7.45 7 7 7.45 7 8V16C7 16.55 7.45 17 8 17C8.55 17 9 16.55 9 16V8C9 7.45 8.55 7 8 7ZM12 12C11.45 12 11 12.45 11 13V16C11 16.55 11.45 17 12 17C12.55 17 13 16.55 13 16V13C13 12.45 12.55 12 12 12ZM16 9C15.45 9 15 9.45 15 10V16C15 16.55 15.45 17 16 17C16.55 17 17 16.55 17 16V10C17 9.45 16.55 9 16 9Z" fill="#8F8F8F"/>
</g>
<defs>
<clipPath id="clip0_4001_21087">
<rect width="24" height="24" fill="white"/>
</clipPath>
</defs>
</svg>
