<svg width="24" height="24" viewBox="0 0 24 24" fill="none" xmlns="http://www.w3.org/2000/svg">
<g clip-path="url(#clip0_4001_21137)">
<path d="M8 17L11.39 12.34C11.72 11.88 12.37 11.79 12.81 12.14L21 18.5V19C21 19.55 20.55 20 20 20H4C3.45 20 3 19.55 3 19V13.28C3.22 13.28 3.44 13.35 3.62 13.5L8 17ZM3 11C3.44 11 3.88 11.15 4.25 11.44L7.62 14.13L10.39 10.32C11.05 9.41003 12.34 9.22003 13.24 9.92003L21 15.97V8.00003C21 7.45003 20.55 7.00003 20 7.00003H17L12.82 3.66003C12.37 3.30003 11.72 3.39003 11.38 3.86003L7 10L3.6 7.45003C3.42 7.32003 3.21 7.25003 3 7.25003V11Z" fill="#8F8F8F"/>
</g>
<defs>
<clipPath id="clip0_4001_21137">
<rect width="24" height="24" fill="white"/>
</clipPath>
</defs>
</svg>
