<svg width="24" height="24" viewBox="0 0 24 24" fill="none" xmlns="http://www.w3.org/2000/svg">
<g clip-path="url(#clip0_4001_21108)">
<path d="M21.3397 6.77006C20.9397 6.37006 20.2697 6.38006 19.8897 6.81006L16.5597 10.5501L10.9097 5.31006C10.1197 4.58006 8.89973 4.60006 8.13973 5.36006L2.69973 10.8101C2.30973 11.2001 2.30973 11.8301 2.69973 12.2201L2.78973 12.3101C3.17973 12.7001 3.80973 12.7001 4.19973 12.3101L9.63973 6.86006L15.2297 12.0501L13.4997 14.0001L10.9197 11.4201C10.1397 10.6401 8.86973 10.6401 8.08973 11.4201L2.69973 16.8001C2.30973 17.1901 2.30973 17.8201 2.69973 18.2101L2.79973 18.3001C3.18973 18.6901 3.81973 18.6901 4.20973 18.3001L9.50973 13.0001L12.0097 15.5001C12.8197 16.3101 14.1497 16.2701 14.9197 15.4101L16.6997 13.4001L19.8897 16.3601C20.2797 16.7201 20.8897 16.7101 21.2697 16.3301L21.2797 16.3201C21.6797 15.9201 21.6697 15.2701 21.2497 14.8901L18.0297 11.9001L21.3797 8.13006C21.7297 7.74006 21.7097 7.14006 21.3397 6.77006Z" fill="#8F8F8F"/>
</g>
<defs>
<clipPath id="clip0_4001_21108">
<rect width="24" height="24" fill="white"/>
</clipPath>
</defs>
</svg>
