<svg width="56" height="56" viewBox="0 0 56 56" fill="none" xmlns="http://www.w3.org/2000/svg">
<g clip-path="url(#clip0_4001_26388)">
<path d="M37.3407 22.7699C36.9407 22.3699 36.2707 22.3799 35.8907 22.8099L32.5607 26.5499L26.9107 21.3099C26.1207 20.5799 24.9007 20.5999 24.1407 21.3599L18.7007 26.8099C18.3107 27.1999 18.3107 27.8299 18.7007 28.2199L18.7907 28.3099C19.1807 28.6999 19.8107 28.6999 20.2007 28.3099L25.6407 22.8599L31.2307 28.0499L29.5007 29.9999L26.9207 27.4199C26.1407 26.6399 24.8707 26.6399 24.0907 27.4199L18.7007 32.7999C18.3107 33.1899 18.3107 33.8199 18.7007 34.2099L18.8007 34.2999C19.1907 34.6899 19.8207 34.6899 20.2107 34.2999L25.5107 28.9999L28.0107 31.4999C28.8207 32.3099 30.1507 32.2699 30.9207 31.4099L32.7007 29.3999L35.8907 32.3599C36.2807 32.7199 36.8907 32.7099 37.2707 32.3299L37.2807 32.3199C37.6807 31.9199 37.6707 31.2699 37.2507 30.8899L34.0307 27.8999L37.3807 24.1299C37.7307 23.7399 37.7107 23.1399 37.3407 22.7699Z" fill="#767676"/>
</g>
<defs>
<clipPath id="clip0_4001_26388">
<rect width="24" height="24" fill="white" transform="translate(16 16)"/>
</clipPath>
</defs>
</svg>
