<svg width="56" height="56" viewBox="0 0 56 56" fill="none" xmlns="http://www.w3.org/2000/svg">
<g clip-path="url(#clip0_4001_27020)">
<path d="M37.3397 22.7699C36.9397 22.3699 36.2697 22.3799 35.8897 22.8099L32.5597 26.5499L26.9097 21.3099C26.1197 20.5799 24.8997 20.5999 24.1397 21.3599L18.6997 26.8099C18.3097 27.1999 18.3097 27.8299 18.6997 28.2199L18.7897 28.3099C19.1797 28.6999 19.8097 28.6999 20.1997 28.3099L25.6397 22.8599L31.2297 28.0499L29.4997 29.9999L26.9197 27.4199C26.1397 26.6399 24.8697 26.6399 24.0897 27.4199L18.6997 32.7999C18.3097 33.1899 18.3097 33.8199 18.6997 34.2099L18.7997 34.2999C19.1897 34.6899 19.8197 34.6899 20.2097 34.2999L25.5097 28.9999L28.0097 31.4999C28.8197 32.3099 30.1497 32.2699 30.9197 31.4099L32.6997 29.3999L35.8897 32.3599C36.2797 32.7199 36.8897 32.7099 37.2697 32.3299L37.2797 32.3199C37.6797 31.9199 37.6697 31.2699 37.2497 30.8899L34.0297 27.8999L37.3797 24.1299C37.7297 23.7399 37.7097 23.1399 37.3397 22.7699Z" fill="#8F8F8F"/>
</g>
<defs>
<clipPath id="clip0_4001_27020">
<rect width="24" height="24" fill="white" transform="translate(16 16)"/>
</clipPath>
</defs>
</svg>
