<svg width="56" height="56" viewBox="0 0 56 56" fill="none" xmlns="http://www.w3.org/2000/svg">
<g clip-path="url(#clip0_4001_26815)">
<path d="M39 24C39 25.1 38.1 26 37 26C36.82 26 36.65 25.98 36.49 25.93L32.93 29.48C32.98 29.64 33 29.82 33 30C33 31.1 32.1 32 31 32C29.9 32 29 31.1 29 30C29 29.82 29.02 29.64 29.07 29.48L26.52 26.93C26.36 26.98 26.18 27 26 27C25.82 27 25.64 26.98 25.48 26.93L20.93 31.49C20.98 31.65 21 31.82 21 32C21 33.1 20.1 34 19 34C17.9 34 17 33.1 17 32C17 30.9 17.9 30 19 30C19.18 30 19.35 30.02 19.51 30.07L24.07 25.52C24.02 25.36 24 25.18 24 25C24 23.9 24.9 23 26 23C27.1 23 28 23.9 28 25C28 25.18 27.98 25.36 27.93 25.52L30.48 28.07C30.64 28.02 30.82 28 31 28C31.18 28 31.36 28.02 31.52 28.07L35.07 24.51C35.02 24.35 35 24.18 35 24C35 22.9 35.9 22 37 22C38.1 22 39 22.9 39 24ZM39 24C39 25.1 38.1 26 37 26C36.82 26 36.65 25.98 36.49 25.93L32.93 29.48C32.98 29.64 33 29.82 33 30C33 31.1 32.1 32 31 32C29.9 32 29 31.1 29 30C29 29.82 29.02 29.64 29.07 29.48L26.52 26.93C26.36 26.98 26.18 27 26 27C25.82 27 25.64 26.98 25.48 26.93L20.93 31.49C20.98 31.65 21 31.82 21 32C21 33.1 20.1 34 19 34C17.9 34 17 33.1 17 32C17 30.9 17.9 30 19 30C19.18 30 19.35 30.02 19.51 30.07L24.07 25.52C24.02 25.36 24 25.18 24 25C24 23.9 24.9 23 26 23C27.1 23 28 23.9 28 25C28 25.18 27.98 25.36 27.93 25.52L30.48 28.07C30.64 28.02 30.82 28 31 28C31.18 28 31.36 28.02 31.52 28.07L35.07 24.51C35.02 24.35 35 24.18 35 24C35 22.9 35.9 22 37 22C38.1 22 39 22.9 39 24Z" fill="#8F8F8F"/>
</g>
<defs>
<clipPath id="clip0_4001_26815">
<rect width="24" height="24" fill="white" transform="translate(16 16)"/>
</clipPath>
</defs>
</svg>
