<svg width="56" height="56" viewBox="0 0 56 56" fill="none" xmlns="http://www.w3.org/2000/svg">
<g clip-path="url(#clip0_4001_26792)">
<path d="M35 37H21C19.9 37 19 36.1 19 35V21C19 19.9 19.9 19 21 19H35C36.1 19 37 19.9 37 21V35C37 36.1 36.1 37 35 37ZM24 23C23.45 23 23 23.45 23 24V32C23 32.55 23.45 33 24 33C24.55 33 25 32.55 25 32V24C25 23.45 24.55 23 24 23ZM28 28C27.45 28 27 28.45 27 29V32C27 32.55 27.45 33 28 33C28.55 33 29 32.55 29 32V29C29 28.45 28.55 28 28 28ZM32 25C31.45 25 31 25.45 31 26V32C31 32.55 31.45 33 32 33C32.55 33 33 32.55 33 32V26C33 25.45 32.55 25 32 25Z" fill="#8F8F8F"/>
</g>
<defs>
<clipPath id="clip0_4001_26792">
<rect width="24" height="24" fill="white" transform="translate(16 16)"/>
</clipPath>
</defs>
</svg>
