<svg preserveAspectRatio="none" width="100%" height="100%" overflow="visible" style="display: block;" viewBox="0 0 229.663 229.663" fill="none" xmlns="http://www.w3.org/2000/svg">
<g id="App icon">
<rect id="Rectangle 2481" width="229.663" height="229.663" rx="41" fill="var(--fill-0, black)"/>
<path id="Union" d="M188.621 51.4307C189.436 51.4307 189.973 52.2808 189.625 53.0186L170.066 94.3545C169.882 94.7442 169.489 94.9912 169.06 94.9912H149.008C145.214 94.9912 141.757 97.1773 140.135 100.607L130.69 120.571L107.844 168.851L106.333 172.043C104.544 175.823 100.739 178.233 96.5571 178.233H60.0894C58.9856 178.233 58.2575 177.082 58.73 176.085L84.9985 120.571L97.103 94.9912L105.759 76.6992L107.844 72.292L114.289 58.6729C116.379 54.2516 120.833 51.4326 125.725 51.4326H188.619L188.621 51.4307ZM70.6128 51.4326C71.0539 51.4326 71.4395 51.702 71.6255 52.1016C71.6275 52.1036 71.6294 52.1074 71.6294 52.1074L91.1265 93.3086C91.4726 94.0385 90.9404 94.8809 90.1313 94.8809H42.7778C42.1687 94.8807 41.6763 94.3885 41.6763 93.7793V52.5342C41.6764 51.9251 42.1688 51.4328 42.7778 51.4326H70.6128Z" fill="url(#paint0_linear_0_4)"/>
</g>
<defs>
<linearGradient id="paint0_linear_0_4" x1="396.354" y1="409.113" x2="6.56199" y2="23.5697" gradientUnits="userSpaceOnUse">
<stop offset="0.570164" stop-color="#9FF91E"/>
<stop offset="1" stop-color="#0FDD99"/>
</linearGradient>
</defs>
</svg>
